<?xml version="1.0" standalone="no"?>
<!DOCTYPE svg PUBLIC "-//W3C//DTD SVG 20010904//EN"
 "http://www.w3.org/TR/2001/REC-SVG-20010904/DTD/svg10.dtd">
<svg version="1.0" xmlns="http://www.w3.org/2000/svg"
 width="329.000000pt" height="254.000000pt" viewBox="0 0 329.000000 254.000000"
 preserveAspectRatio="xMidYMid meet">

<g transform="translate(0.000000,254.000000) scale(0.100000,-0.100000)"
fill="#000000" stroke="none">
<path d="M1555 2061 c-73 -26 -121 -54 -200 -117 -80 -63 -86 -72 -110 -172
-15 -65 -16 -86 -6 -178 12 -101 11 -104 -11 -135 -51 -68 -12 -283 53 -296
25 -5 28 -11 38 -67 6 -35 11 -72 11 -82 0 -24 51 -106 89 -145 16 -15 70 -75
121 -133 77 -87 102 -108 150 -129 32 -14 61 -34 64 -44 3 -10 5 -56 4 -103
-2 -106 15 -148 102 -251 34 -41 72 -91 83 -112 15 -25 31 -40 49 -44 15 -3
25 -9 22 -14 -9 -15 4 -10 27 8 44 38 43 49 -12 105 -60 62 -94 130 -103 209
-6 47 -4 59 14 82 12 14 23 43 26 64 10 84 24 123 41 123 13 0 13 -3 3 -15 -8
-10 -9 -15 -2 -15 6 0 16 9 22 20 7 14 7 20 0 20 -5 0 -10 11 -10 25 0 14 -4
25 -10 25 -5 0 -10 -7 -10 -15 0 -8 -6 -12 -14 -9 -12 5 -13 12 -2 42 7 20 11
43 10 50 -1 6 -2 17 -3 23 0 5 -6 7 -13 3 -6 -4 -8 -3 -5 3 4 5 -5 25 -18 43
-14 19 -25 38 -25 43 0 5 24 36 54 68 44 48 59 73 77 131 12 40 31 93 41 117
29 66 45 219 29 269 -11 34 -11 54 3 128 28 157 2 247 -99 341 -60 56 -165
120 -230 140 -60 19 -191 16 -250 -6z m460 -325 c6 -20 13 -35 15 -32 3 2 5
-13 5 -34 1 -23 8 -47 20 -60 15 -16 20 -43 25 -138 3 -64 4 -127 2 -139 -5
-25 -36 -32 -46 -10 -5 10 -7 10 -12 0 -9 -20 -19 -15 -22 11 -1 13 5 29 13
36 8 7 15 19 15 27 0 8 7 27 15 43 23 44 26 88 6 95 -26 9 -82 65 -76 75 3 5
1 18 -5 29 -5 11 -12 43 -14 70 -4 40 -1 53 12 61 26 14 36 7 47 -34z m-380
-67 c-6 -8 8 -13 28 -10 4 0 7 -2 8 -6 0 -5 2 -19 3 -33 2 -14 5 -29 7 -35 2
-5 0 -11 -6 -11 -5 -1 -9 2 -7 8 1 5 -3 6 -9 2 -7 -4 -18 1 -26 11 -7 11 -13
13 -13 7 0 -19 -35 -14 -54 7 -14 16 -15 23 -5 39 12 20 58 42 72 35 4 -3 5
-9 2 -14z m239 -26 c3 -7 1 -13 -4 -13 -6 0 -10 5 -10 12 0 9 -3 9 -12 0 -17
-17 -28 -15 -28 6 0 15 2 15 11 2 9 -12 10 -11 6 7 -4 19 -3 20 14 10 10 -6
21 -17 23 -24z m-106 5 c8 -8 5 -14 -15 -25 -31 -16 -56 -17 -51 -2 2 6 7 9
11 7 5 -2 13 5 18 15 12 20 21 21 37 5z m-38 -189 c0 -5 -4 -9 -8 -9 -5 0 -9
7 -9 15 0 8 4 12 9 9 4 -3 8 -9 8 -15z m-145 -8 c3 -5 1 -12 -5 -16 -5 -3 -10
1 -10 9 0 18 6 21 15 7z m275 -1 c0 -5 -5 -10 -11 -10 -5 0 -7 5 -4 10 3 6 8
10 11 10 2 0 4 -4 4 -10z m79 -11 c-16 -10 -23 -4 -14 10 3 6 11 8 17 5 6 -4
5 -9 -3 -15z m-434 1 c3 -6 -1 -7 -9 -4 -18 7 -21 14 -7 14 6 0 13 -4 16 -10z
m240 -70 c-3 -5 -2 -10 2 -10 13 0 83 -95 83 -111 0 -8 -11 -2 -26 14 -30 32
-58 32 -62 -1 -4 -23 -16 -29 -27 -12 -9 15 -36 12 -57 -7 -10 -9 -18 -12 -18
-6 0 5 9 18 20 28 11 10 20 15 20 12 0 -4 9 1 20 10 11 10 20 25 20 34 0 8 3
19 8 23 4 4 8 12 8 17 2 16 4 19 10 19 3 0 2 -4 -1 -10z m245 -30 c0 -5 -5
-10 -11 -10 -5 0 -7 5 -4 10 3 6 8 10 11 10 2 0 4 -4 4 -10z m-102 -11 c18 -6
29 -15 26 -20 -7 -13 19 -7 28 6 5 6 12 5 20 -3 10 -10 8 -14 -10 -18 -12 -4
-22 -12 -22 -20 0 -7 -9 -12 -19 -11 -11 0 -18 4 -15 8 2 4 -3 9 -11 13 -8 3
-15 12 -15 21 0 8 -5 14 -11 13 -6 -2 -14 3 -16 10 -6 15 5 15 45 1z m-310
-27 c-10 -12 -10 -14 0 -8 14 8 16 -3 3 -23 -5 -7 -14 -10 -21 -6 -7 4 -11 2
-9 -6 4 -30 -1 -41 -16 -35 -8 3 -27 1 -41 -4 -26 -10 -26 -10 -19 27 4 20 14
43 23 51 9 7 11 10 3 6 -10 -5 -12 -3 -6 5 4 7 18 11 31 8 12 -2 28 0 35 4 20
12 31 -1 17 -19z m-49 -106 c9 -11 7 -15 -8 -19 -14 -3 -17 0 -14 14 6 23 7
23 22 5z"/>
<path d="M1570 1621 c0 -6 4 -13 10 -16 6 -3 7 1 4 9 -7 18 -14 21 -14 7z"/>
<path d="M1486 573 c-7 -7 52 -73 66 -73 17 0 7 27 -20 53 -30 29 -35 31 -46
20z"/>
<path d="M1632 568 c3 -7 15 -15 27 -16 16 -3 22 1 19 10 -3 7 -15 15 -27 16
-16 3 -22 -1 -19 -10z"/>
<path d="M1790 233 c0 -13 28 -54 127 -182 2 -2 5 -2 8 0 5 5 -122 199 -130
199 -3 0 -5 -7 -5 -17z"/>
</g>
</svg>
